HIERARCHY
ROOT Hips
{
    OFFSET 0.000000 0.000000 0.000000
    CHANNELS 6 Xposition Yposition Zposition Zrotation Xrotation Yrotation
    JOINT Spine
    {
        OFFSET -0.000000 8.339920 0.000000
        CHANNELS 3 Zrotation Xrotation Yrotation
        JOINT Spine1
        {
            OFFSET -0.000000 25.214485 0.000000
            CHANNELS 3 Zrotation Xrotation Yrotation
            JOINT Neck
            {
                OFFSET -0.000000 25.110935 2.282812
                CHANNELS 3 Zrotation Xrotation Yrotation
                JOINT Head
                {
                    OFFSET -0.000000 14.238888 -2.034127
                    CHANNELS 3 Zrotation Xrotation Yrotation
                    End Site
                    {
                        OFFSET -0.000000 25.426584 0.000000
                    }
                }
            }
            JOINT LeftShoulder
            {
                OFFSET 4.025024 23.158985 -0.185822
                CHANNELS 3 Zrotation Xrotation Yrotation
                JOINT LeftArm
                {
                    OFFSET 11.674057 0.000000 0.000000
                    CHANNELS 3 Zrotation Xrotation Yrotation
                    JOINT LeftForeArm
                    {
                        OFFSET 31.688633 0.000000 0.000000
                        CHANNELS 3 Zrotation Xrotation Yrotation
                        JOINT LeftHand
                        {
                            OFFSET 29.704493 0.000000 0.000000
                            CHANNELS 3 Zrotation Xrotation Yrotation
                            End Site
                            {
                                OFFSET 15.255952 0.000000 0.000000
                            }
                        }
                    }
                }
            }
            JOINT RightShoulder
            {
                OFFSET -4.099539 23.158985 -0.185822
                CHANNELS 3 Zrotation Xrotation Yrotation
                JOINT RightArm
                {
                    OFFSET -11.674057 0.000000 0.000000
                    CHANNELS 3 Zrotation Xrotation Yrotation
                    JOINT RightForeArm
                    {
                        OFFSET -31.688633 0.000000 0.000000
                        CHANNELS 3 Zrotation Xrotation Yrotation
                        JOINT RightHand
                        {
                            OFFSET -29.704493 0.000000 0.000000
                            CHANNELS 3 Zrotation Xrotation Yrotation
                            End Site
                            {
                                OFFSET -15.255952 0.000000 0.000000
                            }
                        }
                    }
                }
            }
        }
    }
    JOINT LeftUpLeg
    {
        OFFSET 10.170634 0.000000 0.000000
        CHANNELS 3 Zrotation Xrotation Yrotation
        JOINT LeftLeg
        {
            OFFSET -0.000000 -41.352962 0.000000
            CHANNELS 3 Zrotation Xrotation Yrotation
            JOINT LeftFoot
            {
                OFFSET -0.000000 -47.535004 0.000000
                CHANNELS 3 Zrotation Xrotation Yrotation
                JOINT LeftToeBase
                {
                    OFFSET -0.000000 -6.610912 15.255952
                    CHANNELS 3 Zrotation Xrotation Yrotation
                    End Site
                    {
                        OFFSET -0.000000 0.000000 4.068254
                    }
                }
            }
        }
    }
    JOINT RightUpLeg
    {
        OFFSET -10.170634 0.000000 0.000000
        CHANNELS 3 Zrotation Xrotation Yrotation
        JOINT RightLeg
        {
            OFFSET -0.000000 -41.352962 0.000000
            CHANNELS 3 Zrotation Xrotation Yrotation
            JOINT RightFoot
            {
                OFFSET -0.000000 -47.535004 0.000000
                CHANNELS 3 Zrotation Xrotation Yrotation
                JOINT RightToeBase
                {
                    OFFSET -0.000000 -6.610912 15.255952
                    CHANNELS 3 Zrotation Xrotation Yrotation
                    End Site
                    {
                        OFFSET -0.000000 0.000000 4.068254
                    }
                }
            }
        }
    }
}
MOTION
Frames:    4
Frame Time:    0.008333
85.863350    135.148422    41.962364    -1.624217    -4.141506    86.958878    3.395551    -6.376858    -2.204907    0.340356    4.509691    -2.407550    -7.015965    25.519608    2.081605    3.948871    0.270270    2.089946    16.997696    0.408645    3.682973    -24.447351    -5.088157    4.341862    5.554367    -19.452515    1.506350    1.062243    -19.521242    0.017814    -21.741440    -0.279189    -5.910863    21.857483    -6.142084    5.399907    -2.394700    -13.939362    -1.466413    -15.690652    -13.952716    -0.122570    4.712710    7.686513    -0.490230    -0.022372    -8.473956    5.135057    -2.334511    -1.619210    2.627914    0.000000    0.000000    0.000000    8.218430    4.132361    7.288041    -3.901556    1.871722    3.424244    -11.323077    -8.170761    -17.101744    0.000000    0.000000    0.000000    
85.841461    135.150955    41.961067    -1.615066    -4.144637    86.950577    3.374015    -6.237479    -2.223688    0.457786    4.112105    -2.424021    -7.263201    26.032303    2.171274    4.043972    0.028282    2.145376    16.596968    0.571902    3.454176    -24.122433    -5.154226    4.483985    5.568841    -19.417116    1.591004    1.057745    -19.490032    0.005487    -21.611044    -0.084141    -5.682698    21.647688    -6.252773    5.351568    -2.437498    -13.803700    -1.524186    -15.612601    -13.813076    -0.166181    4.707749    7.690104    -0.490656    -0.016300    -8.477983    4.998360    -2.297385    -1.612622    2.787605    0.000000    0.000000    0.000000    8.219161    4.132841    7.278993    -3.904630    1.863361    3.430089    -11.308491    -8.166101    -17.076565    0.000000    0.000000    0.000000    
85.822281    135.152084    41.960419    -1.607317    -4.143736    86.943726    3.334768    -6.150449    -2.225152    0.570778    3.863522    -2.423626    -7.414871    26.371689    2.219553    4.105280    -0.170738    2.171604    16.355234    0.676675    3.287434    -23.943756    -5.233720    4.565742    5.566477    -19.384085    1.653999    1.103189    -19.459997    -0.006082    -21.563478    0.050377    -5.565632    21.531761    -6.303635    5.302521    -2.440715    -13.758355    -1.596309    -15.553349    -13.797039    0.042720    4.699941    7.699441    -0.496174    -0.004972    -8.502239    5.024984    -2.302511    -1.583010    2.778272    0.000000    0.000000    0.000000    8.213754    4.132301    7.283164    -3.901655    1.863832    3.463504    -11.294949    -8.160421    -17.101082    0.000000    0.000000    0.000000    
85.801910    135.152466    41.959373    -1.598557    -4.145174    86.935791    3.334722    -6.139996    -2.224195    0.584422    3.859199    -2.422820    -7.425674    26.375481    2.210899    4.104581    -0.216673    2.162762    16.341415    0.672802    3.277056    -23.923681    -5.257488    4.570023    5.537143    -19.373140    1.683521    1.137737    -19.450274    -0.035420    -21.569195    0.080327    -5.599836    21.537844    -6.339347    5.329723    -2.432728    -13.725690    -1.602487    -15.583170    -13.762074    0.024999    4.698232    7.704119    -0.500011    -0.004972    -8.502239    5.024984    -2.302511    -1.583010    2.778272    0.000000    0.000000    0.000000    8.211131    4.131009    7.296141    -3.920676    1.824308    3.508083    -11.282445    -8.118810    -17.082857    0.000000    0.000000    0.000000    
